<svg xmlns="http://www.w3.org/2000/svg" width="1256" height="321" viewBox="0 0 1256 321" version="1.1">
	<path d="M 344.884 41.695 C 341.882 48.322, 300.706 139.976, 286.793 171 C 282.970 179.525, 276.457 194.150, 272.321 203.500 C 252.156 249.082, 246.466 256.838, 230.500 260.498 L 225.500 261.645 225.206 268.822 L 224.912 276 231.206 276.211 C 234.668 276.327, 239.075 276.344, 241 276.247 C 248.165 275.889, 248.718 276.352, 248.226 282.292 C 247.820 287.184, 248.036 287.882, 250.818 290.664 C 255.184 295.031, 261.469 296.507, 275.500 296.461 C 294.557 296.400, 304 292.431, 304 284.482 C 304 282.495, 303.538 280.005, 302.973 278.950 C 302.059 277.241, 302.385 276.962, 305.973 276.388 L 310 275.744 310 268.433 L 310 261.121 303 260.431 C 296.287 259.770, 296 259.634, 296.006 257.121 C 296.040 240.969, 312.785 231.039, 340 231.032 C 355.584 231.028, 366.073 233.984, 373.925 240.591 C 377.427 243.537, 382.976 252.494, 382.991 255.224 C 383.007 258.238, 377.366 260.169, 366.851 260.748 L 357 261.291 357 268.645 L 357 276 363.750 276.199 C 383.843 276.793, 381.978 276.358, 381.339 280.298 C 380.209 287.259, 384.399 292.414, 393.442 295.188 C 398.655 296.787, 428.597 297.842, 444.642 296.992 C 457.755 296.298, 460.693 295.829, 465.374 293.686 C 471.890 290.703, 473.382 288.330, 472.767 281.931 C 472.380 277.902, 472.598 277.077, 474.154 276.670 C 475.741 276.255, 476 275.138, 476 268.709 L 476 261.230 470.610 260.557 C 465.106 259.869, 457 255.597, 457 253.384 C 457 252.740, 456.296 251.944, 455.437 251.614 C 454.577 251.284, 454.143 250.578, 454.472 250.045 C 454.802 249.511, 453.937 246.837, 452.551 244.101 C 450.213 239.487, 437.874 211.820, 425.525 183.500 C 390.425 103.011, 380.224 80.533, 377.420 77.508 C 376.117 76.103, 375.043 74.736, 375.033 74.472 C 375.024 74.208, 373.250 70.282, 371.091 65.746 C 368.933 61.211, 364.973 52.550, 362.293 46.500 L 357.419 35.500 352.692 35.195 L 347.966 34.889 344.884 41.695 M 1050.802 43.250 C 1048.804 47.788, 1042.804 61.175, 1037.469 73 C 1027.709 94.635, 1020.386 110.951, 1008.631 137.250 C 984.545 191.138, 971.025 221.008, 966.337 230.695 C 956.793 250.416, 950.328 257.170, 937.976 260.324 L 932.500 261.722 932.206 268.861 L 931.912 276 938.206 276.199 C 941.668 276.309, 946.300 276.453, 948.500 276.520 C 956.130 276.753, 955.927 276.626, 954.758 280.436 C 953.341 285.052, 955.218 289.462, 959.909 292.535 C 970.604 299.543, 1003.352 297.497, 1008.597 289.493 C 1010.277 286.928, 1010.683 282.727, 1009.585 279.267 C 1008.952 277.275, 1009.302 276.975, 1012.939 276.394 L 1017 275.744 1017 268.474 L 1017 261.203 1010 260.500 L 1003 259.797 1003 255.800 C 1003 250.444, 1005.314 245.887, 1010.426 241.175 C 1018.414 233.812, 1032.304 230.415, 1050.911 231.273 C 1068.284 232.075, 1078.270 236.216, 1084.701 245.287 C 1088.945 251.274, 1090.280 255.577, 1088.458 257.400 C 1086.509 259.348, 1078.246 261, 1070.451 261 L 1064 261 1064 268.500 L 1064 276 1070.250 276.211 C 1073.688 276.327, 1078.075 276.344, 1080 276.247 C 1087.205 275.887, 1087.997 276.481, 1088.032 282.269 C 1088.079 290.056, 1091.556 293.175, 1102.814 295.530 C 1119.030 298.923, 1161.414 298.219, 1170.963 294.398 C 1178.341 291.446, 1181.939 284.492, 1178.965 278.934 C 1178.126 277.366, 1178.267 276.978, 1179.715 276.882 C 1180.697 276.816, 1181.838 276.816, 1182.250 276.882 C 1182.662 276.947, 1183 273.458, 1183 269.129 L 1183 261.258 1178.058 260.602 C 1171.771 259.768, 1167.091 257.806, 1164.311 254.837 C 1162.184 252.567, 1162 252.177, 1162 249.941 C 1162 249.359, 1161.601 249.129, 1161.113 249.430 C 1160.625 249.732, 1160.288 249.421, 1160.363 248.739 C 1160.438 248.058, 1155.703 236.700, 1149.841 223.500 C 1143.979 210.300, 1129.424 177.225, 1117.498 150 C 1090.755 88.952, 1084.458 75.599, 1082.877 76.576 C 1082.109 77.051, 1081.956 76.880, 1082.443 76.091 C 1082.857 75.422, 1082.523 74.115, 1081.701 73.187 C 1080.879 72.259, 1076.493 63.288, 1071.955 53.250 L 1063.704 35 1059.070 35 L 1054.436 35 1050.802 43.250 M 27 47.356 L 27 54.713 37.324 55.240 C 47.816 55.775, 52 57.048, 55.100 60.648 C 56.948 62.793, 58.398 66.364, 57.093 65.558 C 56.607 65.257, 55.937 65.721, 55.605 66.588 C 54.460 69.570, 55.012 73.507, 57.041 76.835 C 59.049 80.130, 59.071 81.208, 58.787 165.512 C 58.503 249.938, 58.478 250.885, 56.435 253.677 C 52.934 258.465, 47.661 260.381, 36.750 260.831 L 27 261.233 27 268.616 L 27 276 34.750 276.210 C 39.013 276.325, 44.750 276.464, 47.500 276.518 C 55.979 276.684, 56.201 276.755, 55.035 278.934 C 53.369 282.048, 53.777 288.494, 55.750 290.224 C 61.919 295.633, 70.946 297, 100.500 297 C 133.549 297, 143.446 294.962, 146.557 287.518 C 147.772 284.610, 147.764 283.680, 146.499 280.653 L 145.036 277.151 147.996 276.501 C 149.623 276.143, 151.865 276.140, 152.978 276.493 C 154.893 277.101, 155 276.710, 155 269.067 L 155 261 149.640 261 C 146.691 261, 142.304 260.727, 139.890 260.394 C 135.514 259.790, 135.498 259.772, 135 255.144 C 133.898 244.909, 134.486 211.539, 135.836 207.725 C 138.828 199.270, 145.724 194.981, 153.066 197.008 C 154.993 197.540, 158.804 199.421, 161.535 201.187 C 164.266 202.954, 166.838 204.310, 167.250 204.200 C 167.663 204.090, 167.920 204.337, 167.821 204.750 C 167.723 205.162, 168.242 209.031, 168.974 213.346 L 170.305 221.193 178.548 220.846 C 188.330 220.435, 190.005 219.327, 192.367 211.707 C 194.964 203.329, 195.959 193.587, 195.980 176.322 C 196.012 150.690, 193.643 138.674, 187.887 135.274 L 185 133.569 185 115.284 L 185 97 177.725 97 L 170.450 97 168.749 106.969 C 165.097 128.369, 155.077 141.120, 139.287 144.463 C 136.373 145.079, 136.001 144.880, 135.287 142.321 C 134.854 140.770, 134.500 131.175, 134.500 121 L 134.500 102.500 137.500 96.543 C 141.262 89.075, 145.713 85.530, 153.981 83.420 C 169.259 79.521, 188.807 85.072, 203.405 97.456 C 206.918 100.436, 210.004 102.663, 210.263 102.404 C 210.522 102.145, 211.041 104.648, 211.417 107.966 L 212.099 114 220.800 114.150 C 227.569 114.267, 228.501 114.435, 225 114.907 C 221.085 115.434, 220.825 115.608, 223 116.243 C 227.574 117.578, 229.794 117.033, 232.403 113.933 C 236.144 109.487, 238.194 101.252, 238.326 90.131 C 238.471 77.895, 236.823 71.950, 231.833 66.703 L 228 62.674 228 51.337 L 228 40 127.500 40 L 27 40 27 47.356 M 496 47.500 L 496 55 504.057 55 C 513.998 55, 519.884 56.410, 523.347 59.621 C 526.350 62.406, 526.470 63.059, 524.812 67.643 C 523.783 70.489, 523.922 71.567, 525.854 75.714 L 528.084 80.500 527.792 166 C 527.517 246.559, 527.395 251.654, 525.691 254.164 C 522.652 258.641, 517.624 260.361, 506.250 260.817 L 496 261.227 496 268.613 L 496 276 503.250 276.220 C 507.238 276.341, 512.300 276.360, 514.500 276.262 C 516.700 276.164, 519.967 276.311, 521.760 276.589 C 524.592 277.028, 524.887 277.342, 524.010 278.981 C 522.365 282.055, 522.790 288.506, 524.750 290.224 C 528.104 293.165, 532.553 294.798, 540.500 296.004 C 550.885 297.580, 591.497 297.558, 616.290 295.963 C 631.129 295.008, 640.170 294.987, 656.002 295.870 C 692.404 297.900, 700.550 297.157, 709.507 290.995 C 717.964 285.176, 722.063 270.640, 721.912 247 C 721.818 232.218, 720.547 227.175, 716.244 224.514 C 713.173 222.615, 713.018 222.243, 713.532 218 C 713.832 215.525, 714.650 207.537, 715.350 200.250 L 716.622 187 708.953 187 L 701.284 187 697.056 199.684 C 690.300 219.955, 683.344 232.626, 674.327 241.093 C 663.032 251.698, 654.704 253.915, 625.964 253.964 C 607.178 253.997, 605.401 253.851, 605.110 252.250 C 604.935 251.287, 604.597 217.814, 604.359 177.864 C 603.867 95.339, 603.757 96.830, 611.468 81.480 C 618.477 67.528, 617.609 64.540, 605.348 60.414 C 599.092 58.308, 598.879 58.135, 601.100 56.947 C 602.400 56.251, 608.665 55.481, 615.218 55.211 L 627 54.725 627 47.363 L 627 40 561.500 40 L 496 40 496 47.500 M 719 74.933 C 719 114.758, 717.961 110.982, 728.824 110.634 C 732.302 110.522, 735.367 110.784, 735.633 111.216 C 735.900 111.647, 737.926 112, 740.136 112 C 743.874 112, 744.896 111.285, 754.830 101.709 C 766.031 90.911, 772.145 87.076, 779.472 86.250 C 784.155 85.722, 790.162 87.285, 792.010 89.512 C 792.884 90.565, 793.152 110.985, 793.067 170.181 C 792.963 243.109, 792.816 249.721, 791.227 252.943 C 788.383 258.710, 784.160 260.424, 771.750 260.851 L 761 261.221 761 268.611 L 761 276 768.750 276.220 C 773.013 276.341, 778.300 276.360, 780.500 276.262 C 782.700 276.164, 785.921 276.303, 787.658 276.570 L 790.817 277.056 789.272 280.991 C 786.126 288.999, 791.427 293.828, 805.796 296.044 C 817.243 297.808, 865.072 296.814, 871.611 294.676 C 878.731 292.348, 882.293 288.606, 881.746 284.030 C 881.514 282.088, 880.994 279.755, 880.591 278.845 C 880.024 277.563, 880.546 277.039, 882.907 276.520 C 884.583 276.152, 886.865 276.140, 887.978 276.493 C 889.892 277.100, 890 276.709, 890 269.167 L 890 261.199 880.963 260.849 C 874.385 260.595, 871.679 260.100, 871.019 259.032 C 869.151 256.008, 868.886 243.689, 869.189 174 L 869.500 102.500 872.221 96.959 C 875.905 89.459, 879.869 86.667, 887.500 86.196 C 894.888 85.740, 900.158 87.815, 908.128 94.318 C 911.223 96.844, 914.073 98.593, 914.461 98.205 C 914.849 97.817, 915.058 97.950, 914.925 98.500 C 914.791 99.050, 914.945 100.175, 915.265 101 C 915.586 101.825, 916.367 104.188, 917.002 106.250 C 917.877 109.095, 918.801 110.130, 920.828 110.535 C 922.297 110.829, 924.882 111.504, 926.571 112.035 C 931.140 113.471, 933.448 113.222, 936.289 110.987 C 940.303 107.830, 942.369 100.107, 942.439 88 C 942.495 78.414, 942.252 76.995, 939.650 71.696 C 938.083 68.504, 935.945 65.358, 934.900 64.706 C 933.208 63.649, 933 62.230, 933 51.759 L 933 40 826 40 L 719 40 719 74.933 M 349.425 53.573 C 333.731 89.062, 269.194 232.655, 266.832 237.343 C 259.728 251.442, 253.728 259.176, 246.054 264.130 L 241.608 267 263.004 267 L 284.400 267 280.292 264.336 C 274.101 260.322, 271.546 255.041, 271.665 246.500 C 271.772 238.793, 273.576 233.099, 281.806 214.500 L 286.673 203.500 330.087 203.246 L 373.500 202.993 382.185 223.746 C 386.962 235.161, 391.411 246.670, 392.072 249.322 C 393.616 255.517, 392.142 260.862, 387.905 264.426 L 384.847 267 421.655 267 L 458.464 267 454.756 264.480 C 450.173 261.366, 444.804 253.564, 438.253 240.500 C 435.495 235, 415.362 189.775, 393.514 140 C 371.665 90.225, 353.397 49.083, 352.918 48.573 C 352.406 48.028, 350.966 50.089, 349.425 53.573 M 1019.548 135.266 C 998.124 183.245, 977.545 228.575, 973.815 236 C 966.023 251.516, 959.951 259.771, 953.224 263.995 L 948.500 266.962 970 266.902 C 981.825 266.869, 990.825 266.583, 990 266.265 C 986.452 264.902, 981.952 260.532, 980.050 256.604 C 975.967 248.168, 977.370 240.509, 987.261 217.240 L 993.323 202.979 1036.736 203.240 L 1080.149 203.500 1087.680 221 C 1091.822 230.625, 1096.063 240.933, 1097.105 243.907 C 1100.427 253.386, 1099.147 261.682, 1093.783 265.439 C 1091.747 266.866, 1094.739 267, 1128.527 266.996 L 1165.500 266.993 1162.317 265.052 C 1157.531 262.133, 1151.848 254.334, 1145.743 242.302 C 1142.728 236.361, 1122.135 190.213, 1099.981 139.750 C 1077.827 89.287, 1059.431 48.007, 1059.101 48.016 C 1058.770 48.025, 1040.972 87.288, 1019.548 135.266 M 60.289 53.024 C 62.838 55.267, 65.444 58.696, 66.180 60.774 C 67.237 63.759, 67.500 83.199, 67.500 158.500 L 67.500 252.500 64.713 257.500 C 63.180 260.250, 60.487 263.512, 58.727 264.750 L 55.528 267 91.514 266.996 C 127.027 266.993, 127.461 266.968, 124.500 265.129 C 120.573 262.690, 117.445 259.218, 115.828 255.500 C 114.832 253.210, 114.448 241.406, 114.207 205.622 L 113.890 158.744 125.195 159.212 C 149.713 160.226, 165.971 170.385, 173.086 189.137 L 175.500 195.500 175.772 176.750 C 175.922 166.437, 175.922 149.562, 175.772 139.250 L 175.500 120.500 171.913 128 C 162.851 146.946, 148.585 154.938, 123.750 154.983 L 114 155 114 103.859 L 114 52.717 142.250 53.271 C 174.216 53.899, 180.259 54.896, 193.300 61.700 C 205.250 67.934, 212.347 76.230, 217.069 89.488 L 218.854 94.500 218.927 71.750 L 219 49 137.359 49 L 55.718 49 60.289 53.024 M 527.700 51.250 C 532.344 54.544, 535.794 60.471, 536.496 66.360 C 536.833 69.187, 536.972 112.450, 536.805 162.500 L 536.500 253.500 534.247 257.716 C 533.008 260.035, 530.347 263.051, 528.334 264.419 L 524.674 266.906 611.837 266.921 C 659.777 266.929, 699 266.594, 699 266.177 C 699 265.759, 700.350 253.080, 702 238 C 703.650 222.920, 704.988 209.439, 704.973 208.041 C 704.957 206.515, 703.412 209.368, 701.104 215.189 C 690.980 240.719, 678.748 253.650, 658 260.759 C 652.120 262.773, 604.620 263.783, 598.116 262.031 C 592.773 260.592, 586.406 254.902, 584.823 250.152 C 583.300 245.578, 582.402 84.361, 583.822 70.210 C 584.860 59.855, 587.496 54.497, 593.290 50.965 L 596.500 49.007 560.514 49.004 L 524.528 49 527.700 51.250 M 728.052 71.250 L 728.104 93.500 730.336 87.500 C 735.550 73.483, 744.383 63.039, 755.320 57.959 C 763.419 54.197, 771.396 53.017, 788.791 53.008 L 803.082 53 802.791 151.750 L 802.500 250.500 799.500 256.500 C 797.648 260.204, 795.200 263.361, 793.102 264.750 L 789.704 267 825.602 266.941 C 853.844 266.895, 861.075 266.628, 859.508 265.691 C 855.692 263.409, 851.069 257.914, 849.857 254.220 C 848.941 251.428, 848.541 225.875, 848.253 151.750 L 847.869 53 863.685 53.017 C 882.382 53.038, 891.047 54.572, 898.717 59.221 C 909.237 65.597, 914.665 72.570, 920.713 87.481 L 923.966 95.500 923.983 72.250 L 924 49 826 49 L 728 49 728.052 71.250 M 309.721 152.231 L 289.080 198.500 329.695 198.761 C 352.034 198.905, 370.464 198.869, 370.652 198.681 C 371.046 198.287, 332.129 107.891, 331.066 106.731 C 330.678 106.307, 321.073 126.782, 309.721 152.231 M 1035.143 110.108 C 1034.095 112.524, 1024.831 133.336, 1014.559 156.357 C 1004.286 179.378, 996.063 198.396, 996.285 198.618 C 996.507 198.841, 1014.908 198.905, 1037.175 198.761 L 1077.660 198.500 1057.830 152.583 C 1046.923 127.329, 1037.786 106.453, 1037.525 106.192 C 1037.264 105.931, 1036.192 107.693, 1035.143 110.108 M 333.395 174.901 C 330.026 176.955, 326.552 181.915, 325.483 186.195 C 325.113 187.677, 324.066 189.087, 323.155 189.329 C 322.245 189.570, 329.150 189.813, 338.500 189.869 C 347.850 189.924, 354.988 189.639, 354.362 189.235 C 353.737 188.831, 352.478 186.706, 351.565 184.514 C 349.633 179.875, 346.608 176.386, 342.800 174.405 C 339.193 172.528, 337.105 172.638, 333.395 174.901 M 1041.393 173.978 C 1038.252 175.248, 1033.264 181.781, 1032.556 185.553 C 1032.195 187.478, 1031.215 189.055, 1030.217 189.317 C 1029.273 189.565, 1036.150 189.807, 1045.500 189.854 C 1056.758 189.910, 1061.947 189.616, 1060.862 188.982 C 1059.961 188.456, 1058.913 186.782, 1058.534 185.263 C 1057.076 179.422, 1049.998 172.898, 1045.300 173.063 C 1044.310 173.098, 1042.552 173.510, 1041.393 173.978" stroke="none" fill="#000000" fill-rule="evenodd"/>
</svg>