<svg xmlns="http://www.w3.org/2000/svg" width="1807" height="216" viewBox="0 0 1807 216" version="1.1">
	<path d="M 361.500 26.851 C 353.979 29.512, 351.087 31.008, 344.367 35.714 C 335.049 42.239, 328.932 50.483, 325.232 61.500 C 321.605 72.301, 321.553 77.880, 324.931 93.917 C 328.515 110.930, 331.511 117.824, 339.741 128 C 348.544 138.885, 351.941 141.246, 382.292 157.578 C 397.118 165.556, 404.720 171.190, 407.409 176.194 C 409.302 179.716, 409.301 179.769, 407.232 182.674 C 406.086 184.284, 402.752 186.906, 399.824 188.500 C 395.157 191.041, 393.513 191.390, 386.500 191.326 C 381.734 191.283, 376.360 190.544, 373.205 189.497 C 363.330 186.221, 362.568 185.409, 348.350 163.009 C 346.783 160.539, 344.082 157.614, 342.350 156.509 C 339.229 154.518, 338.560 153.117, 335.664 142.500 L 334.300 137.500 328.995 137.192 C 325.429 136.986, 323.417 137.314, 322.860 138.192 C 321.916 139.681, 321.677 204.995, 322.607 207.418 C 322.941 208.288, 323.750 209, 324.406 209 C 325.062 209, 326.168 210.575, 326.864 212.500 L 328.129 216 380.576 216 L 433.022 216 440.902 208.471 C 453.367 196.563, 459.348 183.135, 459.375 167 C 459.402 151.247, 454.675 140.582, 440.760 125 C 427.640 110.309, 420.026 104.990, 389.131 88.933 C 376.047 82.133, 375 81.049, 375 74.303 C 375 69.350, 380.272 64.382, 386.520 63.445 C 391.191 62.744, 398.262 64.050, 402.964 66.481 C 408.365 69.274, 416.039 77.326, 422.451 86.926 C 427.103 93.892, 430.032 97.262, 432.420 98.395 C 436.573 100.366, 436.426 100.366, 440.649 98.362 C 446.794 95.446, 448.397 90.728, 448.820 74.323 C 449.313 55.131, 446.743 45.987, 439.852 42.423 C 437.402 41.157, 436.998 40.352, 436.989 36.724 C 436.983 34.401, 436.696 30.791, 436.350 28.703 L 435.723 24.905 430.689 25.203 L 425.654 25.500 424.077 30.491 C 423.157 33.401, 421.831 35.609, 420.894 35.786 C 420.010 35.954, 413.710 33.763, 406.894 30.917 L 394.500 25.742 380.500 25.412 C 369.055 25.142, 365.588 25.405, 361.500 26.851 M 1130 26.506 C 1091.232 35.240, 1061.268 66.268, 1054.559 104.625 C 1052.424 116.828, 1052.598 123.654, 1055.459 139.963 C 1059.262 161.645, 1062.210 170.981, 1068.614 181.624 C 1076.751 195.148, 1084.146 202.840, 1097 211.151 L 1104.500 216 1153.331 216 L 1202.161 216 1207.607 212.385 C 1219.687 204.367, 1226 195.822, 1226 187.490 C 1226 182.923, 1223.767 177, 1222.046 177 C 1221.549 177, 1220.436 176.293, 1219.571 175.429 C 1218.344 174.201, 1218 171.576, 1218 163.429 C 1218 157.693, 1217.692 153, 1217.315 153 C 1216.938 153, 1212.842 157.059, 1208.213 162.020 C 1190.025 181.512, 1176.746 188.354, 1157 188.407 C 1145.698 188.438, 1137.400 186.476, 1133.381 182.824 C 1128.029 177.959, 1122.977 165.105, 1120.430 149.872 C 1116.861 128.527, 1119.980 102.167, 1127.808 87.522 C 1136.399 71.448, 1155.112 61.832, 1171.812 64.910 C 1184.411 67.231, 1193.969 74.288, 1204.700 89.192 C 1210.973 97.905, 1215.037 101.011, 1220.118 100.978 C 1227.289 100.931, 1230.759 95.043, 1232.238 80.412 C 1233.477 68.163, 1232.238 54.203, 1229.394 48.380 C 1228.352 46.246, 1226.068 43.600, 1224.317 42.500 C 1221.261 40.579, 1221.122 40.202, 1220.817 33 L 1220.500 25.500 1214.564 25.500 L 1208.627 25.500 1207.768 29 C 1207.296 30.925, 1205.828 33.470, 1204.507 34.657 C 1201.742 37.140, 1199.863 36.896, 1188.716 32.604 C 1174.415 27.097, 1167.379 25.731, 1151.500 25.377 C 1140.874 25.139, 1134.605 25.469, 1130 26.506 M 1329.055 35.250 C 1326.399 40.888, 1321.525 51.575, 1318.224 59 C 1310.300 76.826, 1299.423 101.179, 1297.071 106.358 C 1296.037 108.636, 1292.176 117.250, 1288.492 125.500 C 1284.807 133.750, 1280.984 142.300, 1279.996 144.500 C 1279.007 146.700, 1276.084 153.225, 1273.499 159 C 1263.407 181.546, 1258.826 187.558, 1249.325 190.725 L 1243.500 192.667 1243.500 198.583 L 1243.500 204.500 1248.500 205 L 1253.500 205.500 1253.500 210.500 L 1253.500 215.500 1281 215.500 L 1308.500 215.500 1308.313 211.500 C 1308.210 209.300, 1307.760 204.125, 1307.313 200 C 1306.532 192.793, 1306.392 192.488, 1303.750 192.184 C 1300.521 191.812, 1300.408 190.901, 1302.909 185.394 C 1304.334 182.255, 1305.918 180.725, 1309.637 178.894 C 1314.039 176.727, 1315.780 176.500, 1328 176.500 C 1340.036 176.500, 1341.951 176.741, 1345.655 178.722 C 1352.130 182.184, 1356.803 189.243, 1353.857 191.110 C 1353.111 191.582, 1349.666 191.976, 1346.202 191.985 L 1339.905 192 1340.202 198.250 C 1340.426 202.952, 1340.872 204.524, 1342 204.598 C 1342.825 204.651, 1345.463 204.764, 1347.861 204.848 L 1352.223 205 1351.569 208.486 C 1351.206 210.421, 1351.394 212.868, 1351.992 213.986 C 1353.045 215.953, 1354.002 216, 1392.835 216 C 1422.430 216, 1432.907 215.693, 1433.800 214.800 C 1435.807 212.793, 1435.154 208.635, 1432.069 203.770 C 1430.457 201.228, 1428.994 197.666, 1428.819 195.855 C 1428.554 193.116, 1427.960 192.409, 1425.281 191.646 C 1420.517 190.288, 1418.302 185.689, 1377.292 92.007 C 1360.415 53.455, 1357.592 48.206, 1351.530 44.121 C 1349.588 42.813, 1348 41.390, 1348 40.960 C 1348 40.530, 1346.401 36.763, 1344.446 32.589 C 1341.013 25.257, 1340.773 25, 1337.389 25 C 1333.926 25, 1333.829 25.120, 1329.055 35.250 M 1728.200 26.200 C 1727.540 26.860, 1727 27.720, 1727 28.111 C 1727 28.502, 1725.459 32.124, 1723.575 36.161 C 1721.692 40.197, 1717.192 50.138, 1713.575 58.250 C 1702.425 83.262, 1694.038 102.025, 1692.071 106.358 C 1691.037 108.636, 1687.176 117.250, 1683.492 125.500 C 1679.807 133.750, 1675.984 142.300, 1674.996 144.500 C 1674.007 146.700, 1671.084 153.225, 1668.499 159 C 1658.390 181.583, 1654.051 187.255, 1644.111 190.879 L 1637.904 193.142 1638.202 198.821 L 1638.500 204.500 1643.500 205 L 1648.500 205.500 1648.500 210.500 L 1648.500 215.500 1676 215.500 L 1703.500 215.500 1703.313 211.500 C 1703.210 209.300, 1702.760 204.125, 1702.313 200 C 1701.532 192.792, 1701.393 192.488, 1698.748 192.183 C 1696.313 191.903, 1696.070 191.557, 1696.638 189.183 C 1697.913 183.859, 1700.019 181.169, 1704.723 178.852 C 1709.025 176.734, 1710.842 176.500, 1723 176.504 C 1735.022 176.508, 1736.955 176.751, 1740.655 178.726 C 1747.128 182.181, 1751.804 189.242, 1748.857 191.110 C 1748.111 191.582, 1744.666 191.976, 1741.202 191.985 L 1734.905 192 1735.202 198.250 C 1735.397 202.338, 1735.932 204.543, 1736.750 204.625 C 1737.438 204.694, 1740.061 204.806, 1742.579 204.875 C 1747.083 204.998, 1747.148 205.048, 1746.528 207.872 C 1746.181 209.451, 1746.194 211.926, 1746.557 213.372 L 1747.217 216 1767.608 216 L 1788 216 1788 206.500 L 1788 197 1772.918 197 L 1757.837 197 1759.918 193.632 C 1763.307 188.150, 1762.538 184.104, 1754.671 166 L 1747.500 149.500 1716.620 149.235 C 1695.869 149.058, 1685.319 149.320, 1684.457 150.036 C 1682.501 151.659, 1675.168 168.997, 1673.390 176.203 C 1671.408 184.232, 1672.636 189.867, 1677.294 194.121 L 1680.446 197 1666.303 197 L 1652.160 197 1657.866 191.250 C 1664.064 185.005, 1668.172 177.744, 1677.528 156.500 C 1683.652 142.593, 1699.329 107.601, 1704.104 97.180 C 1705.697 93.704, 1707 90.693, 1707 90.489 C 1707 90.285, 1708.711 86.379, 1710.802 81.809 C 1712.893 77.239, 1718.394 65.059, 1723.026 54.741 C 1727.658 44.424, 1731.910 36.135, 1732.474 36.322 C 1733.357 36.614, 1750.415 74.916, 1778.647 140 C 1782.822 149.625, 1786.660 158.175, 1787.175 159 C 1787.769 159.951, 1787.943 154.093, 1787.650 143 L 1787.187 125.500 1772.192 91.711 C 1755.792 54.756, 1752.117 47.807, 1747.285 44.621 C 1744.975 43.097, 1742.938 40.035, 1740.054 33.750 C 1736.183 25.314, 1735.920 25, 1732.720 25 C 1730.894 25, 1728.860 25.540, 1728.200 26.200 M 24.272 43.738 L 24.666 59.500 28.083 64.330 L 31.500 69.161 31.779 114.409 C 32.053 158.837, 32.021 159.704, 29.992 162.283 C 28.856 163.727, 27.331 164.680, 26.603 164.401 C 24.727 163.681, 24.024 169.063, 24.011 184.250 C 24.001 196.331, 24.105 197, 25.997 197 C 27.096 197, 29.793 195.375, 31.991 193.389 C 39.107 186.960, 39.003 188.147, 38.978 114.068 C 38.957 51.752, 38.862 48.292, 37.051 44.304 C 36.003 41.996, 34.213 39.526, 33.073 38.814 C 31.933 38.102, 31 37.177, 31 36.759 C 31 36.342, 42.587 36.016, 56.750 36.036 L 82.500 36.072 79.869 38.286 C 73.991 43.233, 74.002 43.139, 73.976 88.200 C 73.949 134.968, 72.804 162.109, 70.479 171.080 C 66.395 186.843, 53.869 196.708, 33.958 199.844 L 24 201.413 24 208.706 L 24 216 46.810 216 L 69.619 216 74.804 211.250 C 83.456 203.323, 88.393 193.393, 91.136 178.395 C 91.746 175.060, 92.498 150.787, 92.869 122.500 C 93.614 65.547, 92.925 69.916, 102.978 58.428 C 109.005 51.540, 109.472 48.318, 105.077 43.923 C 103.469 42.315, 102.591 41, 103.125 41 C 103.681 41, 103.968 38.329, 103.798 34.750 L 103.500 28.500 63.689 28.238 L 23.878 27.977 24.272 43.738 M 118.677 28.657 C 118.304 29.029, 118 31.958, 118 35.167 L 118 41 123.250 41.070 C 127.696 41.130, 134.671 42.720, 131.407 42.930 C 130.807 42.968, 129.513 44.489, 128.533 46.309 C 126.845 49.443, 126.841 49.792, 128.460 52.923 C 129.400 54.740, 132.107 59.058, 134.476 62.518 L 138.783 68.809 139.227 113.655 C 139.594 150.717, 139.961 159.802, 141.342 166 C 142.261 170.125, 143.708 176.697, 144.558 180.604 C 147.385 193.614, 154.604 205.384, 164.259 212.725 L 168.500 215.950 212.650 215.975 L 256.799 216 262.150 211.995 C 271.998 204.623, 279.117 194.404, 282.379 182.957 C 285.308 172.678, 286.159 160.452, 286.867 118.500 C 287.552 77.901, 287.651 76.335, 289.820 71.551 C 291.054 68.830, 293.818 64.329, 295.962 61.549 C 302.462 53.124, 303.393 47.476, 298.947 43.452 C 297.536 42.175, 297.294 41.351, 298.059 40.429 C 298.637 39.733, 298.973 36.763, 298.805 33.831 L 298.500 28.500 266 28.500 L 233.500 28.500 233.206 34.606 L 232.912 40.711 238.430 41.281 C 245.811 42.042, 246.243 42.423, 244.315 46.466 C 242.306 50.679, 243.488 54.131, 249.199 60.730 C 256.524 69.194, 256.174 66.331, 255.763 114.328 C 255.436 152.444, 255.183 158.135, 253.606 162.922 C 251.526 169.239, 249.801 172.229, 245.570 176.859 C 237.239 185.975, 223.015 190.047, 210.508 186.898 C 207.098 186.039, 205.805 185.100, 204.655 182.648 C 200.743 174.301, 200.564 171.728, 200.531 123.500 C 200.497 72.520, 200.599 71.423, 205.996 64.404 C 207.647 62.257, 210.348 58.746, 211.999 56.601 C 215.751 51.727, 216.002 46.911, 212.678 43.587 C 210.893 41.802, 210.652 41.061, 211.634 40.383 C 212.564 39.740, 212.720 38.001, 212.206 34 L 211.500 28.500 165.427 28.240 C 140.086 28.097, 119.049 28.285, 118.677 28.657 M 474.673 28.661 C 474.303 29.031, 474 41, 474 55.260 C 474 79.431, 474.123 81.219, 475.808 81.660 C 476.803 81.920, 478.468 83.713, 479.508 85.644 C 481.434 89.221, 485.460 92.003, 488.700 91.996 C 491.851 91.990, 496.646 88.338, 502.058 81.825 C 512.153 69.676, 519.728 66.376, 525.799 71.484 L 529 74.178 528.882 127.839 C 528.817 157.353, 528.479 182.802, 528.132 184.394 C 527.087 189.180, 523.270 191.180, 513.837 191.881 L 505.500 192.500 505.204 198.112 L 504.908 203.723 508.704 204.351 C 510.792 204.696, 513.869 204.983, 515.543 204.989 C 518.551 205, 518.585 205.060, 518.543 210.250 L 518.500 215.500 560.228 215.761 L 601.956 216.022 602.624 213.360 C 602.992 211.896, 602.777 209.272, 602.146 207.528 C 601.516 205.785, 601 201.577, 601 198.179 L 601 192 596.519 192 C 592.484 192, 591.962 191.726, 591.269 189.250 C 590.846 187.738, 590.500 162.200, 590.500 132.500 C 590.500 73.684, 590.532 73.328, 596.091 70.453 C 602.478 67.150, 608.528 70.102, 617.760 81.026 C 625.070 89.675, 629.428 92.504, 633.921 91.517 C 640.353 90.105, 643.675 82.799, 644.650 67.922 C 645.510 54.801, 644.159 50.013, 637.860 43.870 C 633.510 39.627, 633.087 38.791, 632.806 33.870 L 632.500 28.500 553.923 28.244 C 510.705 28.103, 475.043 28.291, 474.673 28.661 M 653.449 30.345 C 653.126 31.635, 653.005 34.448, 653.180 36.595 L 653.500 40.500 659.500 40.775 C 668.079 41.169, 668.482 41.430, 665.903 44.917 C 662.895 48.986, 663.882 52.976, 669.536 59.594 C 677.531 68.952, 676.987 64.091, 676.994 126.282 C 677 186.279, 676.913 187.371, 671.867 190.071 C 670.600 190.749, 665.950 191.573, 661.532 191.902 L 653.500 192.500 653.180 196.405 C 652.579 203.757, 653.166 204.461, 660.198 204.822 C 663.651 204.999, 666.607 205.274, 666.766 205.433 C 666.926 205.592, 666.593 206.941, 666.026 208.431 C 665.460 209.920, 665.272 212.237, 665.609 213.580 L 666.222 216.022 708.361 215.761 L 750.500 215.500 750.237 211 C 750.093 208.525, 749.838 204.475, 749.671 202 C 749.504 199.525, 749.284 196.262, 749.183 194.750 C 749.013 192.189, 748.694 192, 744.547 192 C 740.253 192, 740.057 191.866, 739.053 188.250 C 737.683 183.318, 737.629 77.877, 738.993 72.965 C 739.977 69.425, 743.351 63.900, 748.989 56.601 C 752.737 51.749, 753.005 46.914, 749.711 43.620 C 747.855 41.764, 747.666 41.101, 748.715 40.121 C 749.890 39.024, 749.753 33.485, 748.448 29.250 C 748.147 28.273, 737.788 28, 701.050 28 L 654.038 28 653.449 30.345 M 767.690 28.750 C 766.711 30.467, 765.938 37.230, 766.514 39.044 C 767.037 40.692, 768.057 41, 772.986 41 C 781.169 41, 782.449 41.602, 779.955 44.278 C 776.588 47.893, 777.577 53.571, 782.520 59 C 783.772 60.375, 785.967 63.250, 787.398 65.390 L 790 69.279 790 126.592 C 790 165.210, 789.651 184.673, 788.929 186.257 C 787.203 190.044, 784.025 191.333, 775.250 191.806 C 768.230 192.185, 767 192.512, 767 194 C 767 194.963, 766.733 197.083, 766.408 198.711 C 765.499 203.257, 767.910 205, 775.107 205 C 780.805 205, 781.022 205.091, 779.975 207.046 C 779.373 208.172, 779.020 210.534, 779.190 212.296 L 779.500 215.500 821.500 215.500 L 863.500 215.500 863.300 211 C 863.190 208.525, 862.965 203.350, 862.800 199.500 L 862.500 192.500 858.203 192.190 C 853.023 191.817, 852.465 190.753, 851.471 179.365 C 850.474 167.926, 852.258 157.183, 855.656 154.177 C 859.266 150.983, 862.475 151.939, 867.767 157.786 C 870.114 160.379, 873.968 164.637, 876.333 167.250 C 879.998 171.299, 881.183 172, 884.362 172 C 889.330 172, 892.398 168.822, 894.643 161.353 C 896.138 156.380, 896.410 151.217, 896.451 127 C 896.478 111.325, 896.157 97.275, 895.738 95.778 C 894.687 92.025, 891.167 89, 887.850 89 L 885.078 89 884.789 80.250 L 884.500 71.500 878.781 71.201 C 872.363 70.865, 873.178 69.798, 870.922 81.500 C 870.286 84.800, 868.712 89.587, 867.423 92.138 C 865.066 96.804, 857.745 104, 855.355 104 C 852.806 104, 851.718 99.558, 851.680 89.004 C 851.638 77.195, 853.207 72.305, 858.209 68.650 C 861.987 65.890, 870.310 65.376, 877.608 67.452 C 886.650 70.024, 892.115 74.269, 898.014 83.302 C 902.527 90.213, 903.850 91.500, 908.762 93.749 C 914.023 96.157, 914.611 96.227, 918.432 94.907 C 921.676 93.785, 922.951 92.588, 924.726 89 C 927.365 83.667, 928.953 73.666, 928.980 62.210 C 929.004 52.416, 927.224 48.059, 921.034 42.762 C 917.443 39.687, 917 38.820, 917 34.854 C 917 32.404, 916.460 29.860, 915.800 29.200 C 914.889 28.289, 896.991 28, 841.359 28 C 801.076 28, 767.926 28.337, 767.690 28.750 M 935.607 29.582 C 935.273 30.452, 935 32.665, 935 34.500 C 935 40.503, 935.581 41, 942.607 41 C 946.123 41, 949 41.130, 949 41.289 C 949 41.447, 948.159 43.227, 947.130 45.245 C 944.587 50.233, 945.392 53.171, 950.984 59.309 C 959.581 68.747, 959 63.831, 958.996 127.200 C 958.993 181.198, 958.913 183.630, 957.048 186.689 C 954.771 190.424, 950.295 191.986, 941.844 191.994 L 936.188 192 935.496 197.030 C 934.600 203.540, 935.573 204.600, 942.707 204.889 C 945.868 205.017, 948.594 205.261, 948.765 205.431 C 948.935 205.602, 948.551 206.892, 947.911 208.297 C 947.270 209.703, 947.037 212.011, 947.392 213.426 L 948.038 216 990.040 216 L 1032.043 216 1033.105 213.668 C 1033.899 211.927, 1033.808 210.471, 1032.748 207.918 C 1031.967 206.038, 1031.529 202.814, 1031.773 200.753 C 1032.018 198.692, 1031.936 195.879, 1031.590 194.503 C 1031.038 192.303, 1030.425 192, 1026.526 192 C 1022.209 192, 1022.069 191.900, 1021.295 188.250 C 1020.858 186.188, 1020.500 159.525, 1020.500 129 C 1020.500 65.855, 1019.969 70.031, 1029.381 59.168 C 1031.921 56.236, 1034 53.235, 1034 52.500 C 1034 51.765, 1034.240 50.537, 1034.534 49.772 C 1034.828 49.006, 1033.950 46.732, 1032.584 44.718 C 1031.210 42.694, 1030.524 40.794, 1031.049 40.469 C 1032.322 39.683, 1032.263 32.360, 1030.965 29.934 C 1029.964 28.064, 1028.375 28, 983.072 28 C 941.266 28, 936.149 28.171, 935.607 29.582 M 1442.750 28.552 C 1442.338 28.982, 1442 31.958, 1442 35.167 L 1442 41 1448.333 41 C 1451.817 41, 1454.951 41.284, 1455.298 41.631 C 1455.645 41.979, 1455.270 43.204, 1454.465 44.354 C 1452.702 46.870, 1452.617 51.735, 1454.285 54.546 C 1454.953 55.672, 1457.525 59.236, 1460 62.468 L 1464.500 68.343 1464.774 125.906 C 1465.061 186.224, 1464.956 187.883, 1460.703 190.159 C 1459.591 190.754, 1454.908 191.477, 1450.296 191.764 L 1441.912 192.287 1442.206 198.394 L 1442.500 204.500 1448.751 204.798 L 1455.002 205.095 1453.404 208.186 C 1452.169 210.573, 1452.050 211.815, 1452.881 213.639 L 1453.957 216 1514.354 216 L 1574.751 216 1580.626 213.406 C 1590.121 209.213, 1599.304 202.519, 1607.470 193.838 C 1613.628 187.292, 1616.161 183.563, 1620.532 174.609 C 1628.354 158.585, 1630.431 149.239, 1630.334 130.500 C 1630.244 112.989, 1627.874 101.883, 1621.221 87.794 C 1616.302 77.378, 1610.856 70.179, 1597.807 56.844 C 1586.177 44.960, 1577.716 39.405, 1564.049 34.683 C 1548.411 29.280, 1544.430 28.929, 1492 28.328 C 1465.325 28.022, 1443.162 28.123, 1442.750 28.552 M 364 33.381 C 343.911 39.196, 330 56.957, 330 76.791 C 330 86.114, 331.342 90.823, 336.236 98.675 C 343.923 111.009, 352.882 117.704, 381.500 132.501 C 405.131 144.720, 411.351 149.571, 416.118 159.500 C 425.808 179.684, 410.102 199, 383.998 199 C 364.035 199, 343.293 183.358, 333.978 161.278 C 332.519 157.821, 331.027 154.694, 330.663 154.329 C 330.298 153.965, 330 163.417, 330 175.333 C 330 195.230, 330.489 199.254, 332.509 195.986 C 333.635 194.163, 340.851 191, 343.882 191 C 345.511 191, 350.817 192.399, 355.672 194.109 C 375.390 201.054, 384.918 202.294, 398.615 199.699 C 415.598 196.480, 429.091 186.675, 436.156 172.417 C 440.230 164.196, 440.345 163.688, 440.398 153.733 C 440.458 142.432, 439.034 137.009, 433.867 128.853 C 428.230 119.954, 411.850 108.437, 387.612 96.330 C 366.270 85.669, 355.888 77.693, 352.284 69.190 C 349.761 63.238, 350.302 55.054, 353.619 48.959 C 357.002 42.743, 360.870 39.597, 368.370 36.961 C 378.091 33.545, 390.896 34.873, 401.877 40.438 C 411.238 45.181, 421.612 56.533, 427.524 68.500 L 429.500 72.500 429.787 58 C 429.945 50.025, 429.822 42.481, 429.515 41.237 L 428.955 38.973 426.045 41.125 C 422.433 43.795, 417.720 43.254, 408.078 39.061 C 395.098 33.416, 391.971 32.670, 380 32.368 C 372.675 32.183, 366.866 32.551, 364 33.381 M 1131.500 33.478 C 1096.686 40.670, 1070.454 66.525, 1062.509 101.478 C 1059.564 114.433, 1060.825 136.025, 1065.153 146.752 C 1074.002 168.685, 1084.237 180.753, 1101.531 189.648 C 1128.120 203.324, 1163.081 204.546, 1186.750 192.626 C 1194.287 188.830, 1208.244 178.281, 1209.953 175.088 C 1212.320 170.665, 1208.639 172.162, 1201.734 178.430 C 1185.593 193.082, 1163.940 199.026, 1142.931 194.573 C 1133.684 192.613, 1127.668 189.513, 1120.841 183.192 C 1110.362 173.490, 1103.688 158.494, 1100.601 137.713 C 1096.457 109.820, 1100.349 82.116, 1111.036 63.437 C 1118.676 50.084, 1133.920 40.045, 1149.801 37.907 C 1175.916 34.393, 1197.679 46.474, 1209.440 71.015 C 1212.231 76.838, 1212.872 77.608, 1213.373 75.736 C 1214.170 72.765, 1214.174 38.507, 1213.378 37.712 C 1213.036 37.370, 1211.488 38.358, 1209.938 39.908 C 1204.894 44.952, 1202.257 44.806, 1183.391 38.442 C 1177.831 36.567, 1170.039 34.350, 1166.076 33.516 C 1157.546 31.722, 1140.094 31.702, 1131.500 33.478 M 139 36.606 C 139 36.939, 140.109 38.085, 141.466 39.152 C 146.126 42.818, 146.314 45.057, 146.998 105 C 147.698 166.397, 147.672 166.115, 153.606 177.017 C 159.612 188.052, 173.876 196.996, 189.521 199.535 C 208.564 202.626, 226.714 200.785, 239.505 194.465 C 248.414 190.063, 257.769 181.363, 261.490 174.020 C 266.664 163.810, 267.178 158.002, 267.867 102 C 268.498 50.656, 268.507 50.486, 270.837 45.754 C 272.123 43.144, 274.260 40.154, 275.587 39.110 C 276.914 38.066, 278 36.939, 278 36.606 C 278 36.273, 272.272 36, 265.272 36 L 252.544 36 256.192 39.007 C 263.485 45.018, 263.500 45.150, 263.500 102 C 263.500 147.601, 263.320 153.276, 261.649 160.500 C 258.182 175.481, 250.557 185.496, 238.261 191.222 C 231.849 194.208, 230.854 194.374, 219 194.435 C 208.035 194.492, 205.896 194.221, 201.580 192.231 C 189.171 186.509, 183.498 178.366, 181.891 163.972 C 181.287 158.560, 181.003 132.788, 181.188 100.195 L 181.500 45.500 183.832 41.750 C 185.114 39.688, 186.576 38, 187.082 38 C 187.587 38, 188 37.550, 188 37 C 188 36.361, 179.167 36, 163.500 36 C 150.025 36, 139 36.273, 139 36.606 M 481 50.493 C 481 58.472, 481.389 65, 481.864 65 C 482.339 65, 483.497 62.988, 484.436 60.528 C 485.375 58.069, 488.198 53.771, 490.709 50.978 C 498.616 42.184, 507.558 39.094, 525.269 39.036 L 536.037 39 535.769 113.295 C 535.477 194.070, 535.939 187.079, 530.385 194.750 L 528.756 197 553.456 197 L 578.156 197 574.647 192.901 C 571.733 189.497, 571.033 187.757, 570.521 182.651 C 570.181 179.268, 570.038 145.675, 570.202 108 L 570.500 39.500 579 39.194 C 592.961 38.691, 602.542 40.492, 608.932 44.821 C 614.743 48.756, 620.982 56.886, 623.087 63.265 C 625.198 69.659, 626.083 65.389, 625.778 50.288 L 625.500 36.500 553.250 36.243 L 481 35.987 481 50.493 M 678.882 39.518 C 680.581 41.453, 682.315 44.266, 682.736 45.768 C 683.156 47.271, 683.500 79.795, 683.500 118.044 C 683.500 193.707, 683.942 187.073, 678.385 194.750 L 676.756 197 701.456 197 L 726.156 197 722.694 192.956 C 720.790 190.731, 718.955 187.525, 718.616 185.831 C 717.493 180.214, 717.918 53.481, 719.078 48.071 C 719.744 44.968, 721.275 41.847, 723.078 39.916 C 724.685 38.196, 726 36.611, 726 36.394 C 726 36.177, 714.703 36, 700.896 36 L 675.793 36 678.882 39.518 M 792.221 39.554 C 794.184 41.517, 796.132 44.333, 796.548 45.812 C 796.965 47.290, 797.497 77.975, 797.731 114 C 798.195 185.568, 798.071 187.571, 792.811 193.563 L 789.793 197 815.093 197 L 840.392 197 837.316 193.750 C 835.624 191.963, 833.774 189.587, 833.203 188.472 C 831.918 185.956, 831.424 169.411, 831.750 139.750 L 832 117 836.750 117.008 C 854.864 117.036, 868.831 124.520, 873.983 136.959 C 874.676 138.632, 875.638 140, 876.121 140 C 876.605 140, 877 128.975, 877 115.500 C 877 102.025, 876.807 91, 876.570 91 C 876.334 91, 875.133 93.017, 873.902 95.482 C 870.804 101.685, 863.242 108.901, 857.396 111.232 C 854.180 112.515, 848.982 113.370, 842.250 113.724 L 832 114.262 832 76.631 L 832 39 848.750 39.003 C 882.823 39.010, 897.685 44.833, 905.558 61.260 L 908.856 68.143 909.483 63.822 C 909.828 61.445, 909.973 54.325, 909.805 48 L 909.500 36.500 849.075 36.242 L 788.651 35.984 792.221 39.554 M 961.294 39.903 C 964.289 43.218, 964.917 44.763, 965.465 50.153 C 965.820 53.644, 965.973 86.051, 965.805 122.169 L 965.500 187.838 962.271 192.419 L 959.041 197 983.624 197 L 1008.207 197 1005.118 193.482 C 1003.419 191.547, 1001.685 188.734, 1001.264 187.232 C 1000.235 183.552, 1000.283 53.772, 1001.316 47.717 C 1001.909 44.246, 1003.083 41.984, 1005.600 39.467 L 1009.067 36 983.417 36 L 957.767 36 961.294 39.903 M 1331.786 46.250 C 1316.449 80.417, 1290.733 137.982, 1284.321 152.500 C 1273.083 177.944, 1269.312 184.755, 1262.866 191.250 L 1257.160 197 1271.303 197 L 1285.446 197 1282.294 194.121 C 1277.953 190.156, 1276.544 184.516, 1278.064 177.182 C 1279.360 170.927, 1287.416 151.730, 1289.454 150.038 C 1290.320 149.319, 1300.831 149.057, 1321.620 149.235 L 1352.500 149.500 1359.671 166 C 1367.538 184.104, 1368.307 188.150, 1364.918 193.632 L 1362.837 197 1388.668 196.995 L 1414.500 196.990 1411.885 194.745 C 1406.175 189.843, 1402.131 182.191, 1387.184 148 C 1380.572 132.875, 1369.225 107, 1361.969 90.500 C 1354.713 74, 1347.525 57.575, 1345.996 54 C 1340.363 40.827, 1338.006 36, 1337.206 36 C 1336.756 36, 1334.317 40.612, 1331.786 46.250 M 1466.689 39.173 C 1468.442 41.003, 1470.355 43.767, 1470.939 45.315 C 1471.650 47.202, 1472 71.160, 1472 117.989 L 1472 187.847 1468.451 192.496 L 1464.902 197.146 1503.701 196.773 C 1539.387 196.431, 1543.190 196.228, 1551.103 194.244 C 1568.960 189.766, 1580.714 183.245, 1591.612 171.770 C 1607.678 154.854, 1615.048 127.834, 1610.557 102.316 C 1605.635 74.351, 1592.747 55.889, 1570.500 44.936 C 1554.656 37.135, 1551.852 36.764, 1505 36.277 L 1463.500 35.846 1466.689 39.173 M 1507 112.777 C 1507 194.180, 1506.604 189.165, 1513.311 192.686 C 1517.431 194.849, 1530.532 194.856, 1537.709 192.698 C 1553.963 187.812, 1564.723 173.918, 1570.003 151 C 1574.044 133.458, 1573.783 100.989, 1569.460 83.596 C 1561.787 52.725, 1545.110 39.005, 1515.250 39.001 L 1507 39 1507 112.777 M 1534.500 69.716 C 1530.824 70.605, 1528.112 74.145, 1526.999 79.506 C 1525.702 85.753, 1526.030 182.531, 1527.357 185.245 C 1528.048 186.658, 1528.998 186.869, 1532.355 186.353 C 1541.246 184.987, 1550.363 178.356, 1555.573 169.466 C 1561.593 159.193, 1566 138.580, 1566 120.693 C 1566 97.727, 1556.804 77.561, 1543.500 71.353 C 1538.377 68.962, 1537.942 68.883, 1534.500 69.716 M 1313.070 95.750 C 1308.984 104.963, 1302.347 119.803, 1298.320 128.729 C 1294.294 137.655, 1291 145.417, 1291 145.979 C 1291 146.651, 1301.094 147, 1320.500 147 C 1345.995 147, 1350 146.797, 1350 145.507 C 1350 144.686, 1346.682 136.473, 1342.628 127.257 C 1338.573 118.041, 1332.222 103.412, 1328.513 94.750 C 1324.805 86.088, 1321.485 79, 1321.136 79 C 1320.786 79, 1317.157 86.538, 1313.070 95.750 M 1708.070 95.750 C 1703.984 104.963, 1697.347 119.803, 1693.320 128.729 C 1689.294 137.655, 1686 145.417, 1686 145.979 C 1686 146.651, 1696.094 147, 1715.500 147 C 1740.995 147, 1745 146.797, 1745 145.507 C 1745 144.686, 1741.682 136.473, 1737.628 127.257 C 1733.573 118.041, 1727.222 103.412, 1723.513 94.750 C 1719.805 86.088, 1716.485 79, 1716.136 79 C 1715.786 79, 1712.157 86.538, 1708.070 95.750" stroke="none" fill="#000000" fill-rule="evenodd"/>
</svg>