<svg xmlns="http://www.w3.org/2000/svg" width="1747" height="318" viewBox="0 0 1747 318" version="1.1">
	<path d="M 867.500 38.028 C 850.344 39.519, 834.357 45.154, 820 54.771 C 813.388 59.200, 801.007 71.131, 796.610 77.312 C 786.073 92.125, 779.174 110.593, 778.349 126.200 C 777.507 142.104, 780.994 155.897, 791.021 176.338 C 794.309 183.038, 796 187.762, 796 190.243 L 796 194 801.961 194 L 807.923 194 809.024 198.250 C 812.380 211.209, 813.658 215.227, 816.707 222.414 C 829.499 252.566, 857.661 271.119, 884.563 267.118 C 893.964 265.720, 900.670 262.274, 906.410 255.889 C 911.211 250.549, 913.010 245.619, 912.978 237.884 C 912.950 231.010, 910.409 225.421, 904.385 218.981 C 898.005 212.160, 890.079 207.135, 867 195.280 C 833.623 178.135, 821.587 170.099, 809.840 157.114 C 803.517 150.125, 796.801 137.620, 794.472 128.500 C 792.634 121.301, 792.390 105.342, 793.994 97.306 C 794.632 94.113, 797.202 87.239, 799.705 82.032 C 803.593 73.944, 805.587 71.235, 813.378 63.450 C 820.790 56.044, 824.094 53.556, 831 50.178 C 842.859 44.377, 849.420 42.830, 864.500 42.280 C 884.048 41.566, 889.843 42.925, 917 54.590 C 920.025 55.889, 923.501 56.963, 924.724 56.976 C 927.256 57.003, 929.436 53.524, 930.526 47.715 L 931.223 44 926.242 44 C 923.503 44, 915.912 42.892, 909.375 41.537 C 892.167 37.972, 879.933 36.947, 867.500 38.028 M 72.500 41.983 C 65.547 42.450, 58.187 43.570, 55 44.645 L 49.500 46.500 109 47.051 C 159.588 47.520, 169.848 47.861, 177.500 49.327 C 198.425 53.337, 210.046 58.927, 221.676 70.576 C 233.614 82.532, 238.391 92.780, 239.587 109 C 241.878 140.052, 222.313 166.161, 189.500 175.843 C 179.375 178.830, 170.991 179.960, 151.121 181.016 C 141.430 181.531, 133.346 181.963, 133.158 181.976 C 132.969 181.989, 132.975 198.762, 133.170 219.250 C 133.487 252.428, 133.719 256.891, 135.296 260.081 C 137.853 265.250, 142.339 267.018, 154.672 267.716 L 165 268.301 165 276.651 L 165 285 102 285 L 39 285 38.995 280.250 L 38.990 275.500 36.519 278.500 C 32.016 283.968, 29.951 295.065, 32.010 302.727 C 32.716 305.352, 35.042 309.863, 37.179 312.750 L 41.065 318 111.460 318 L 181.855 318 183.865 315.444 C 188.090 310.074, 190.450 303.625, 190.829 296.420 C 191.341 286.694, 188.731 280.894, 179.171 270.513 C 169.585 260.102, 168.727 258.327, 168.198 247.797 C 167.618 236.278, 168.425 232.642, 172.580 228.043 C 176.309 223.915, 176.279 223.927, 192 220.499 C 211.781 216.187, 220.491 212.739, 233.867 203.927 C 251.843 192.085, 264.457 174.027, 271.536 150 C 275.029 138.146, 275.187 136.992, 274.599 127.664 C 274.258 122.255, 273.548 117.024, 273.022 116.040 C 272.316 114.722, 272.530 113.831, 273.832 112.652 C 275.463 111.176, 275.745 111.221, 277.471 113.237 C 280.188 116.410, 281.489 146.078, 281.495 205 C 281.500 257.024, 281.385 258.214, 275.711 264.677 L 272.506 268.327 279.454 267.615 C 288.034 266.736, 292.010 264.923, 294.544 260.734 C 296.448 257.587, 296.500 255.046, 296.500 166 C 296.500 91.247, 296.252 73.912, 295.144 71.288 C 293.387 67.125, 287.094 64.003, 280.434 63.991 C 277.720 63.987, 273.137 63.699, 270.250 63.352 C 265.063 62.729, 265 62.680, 265 59.302 C 265 54.763, 263.872 55.658, 258.935 64.112 C 256.682 67.969, 254.219 71.363, 253.461 71.653 C 251.101 72.559, 245.605 70.149, 238.921 65.280 C 223.050 53.716, 204.416 46.976, 178.500 43.425 C 165.666 41.667, 92.098 40.666, 72.500 41.983 M 299.491 42.007 C 293.986 42.398, 286.786 43.569, 283.491 44.609 L 277.500 46.500 345 47.076 C 418.348 47.702, 424.659 48.136, 441 53.686 C 460.267 60.229, 475.743 75.444, 482.005 94 C 484.747 102.125, 485.698 117.134, 484.071 126.610 C 480.576 146.970, 464.825 164.884, 443.689 172.537 L 437.879 174.641 458.689 203.798 C 470.135 219.834, 482.285 236.913, 485.689 241.751 C 489.092 246.589, 494.508 253.679, 497.724 257.508 C 504.128 265.133, 509.076 267.847, 516.750 267.946 L 521 268 521 276.500 L 521 285 481.181 285 L 441.363 285 404.819 233.250 C 368.648 182.029, 368.237 181.497, 364.593 181.187 L 360.912 180.874 361.206 219.733 C 361.476 255.394, 361.650 258.821, 363.328 261.379 C 365.966 265.403, 371.117 267.140, 382.223 267.752 L 392 268.291 392 276.653 L 392 285.015 328.750 284.757 L 265.500 284.500 265 281 L 264.500 277.500 262.762 279.955 C 255.523 290.183, 257.423 306.897, 266.758 315.093 L 270.070 318 339.682 318 L 409.294 318 413.565 314.500 C 419.304 309.797, 423.498 309.798, 431.300 314.503 L 437.100 318 597.760 318 L 758.419 318 765.862 310 C 774.402 300.820, 776.862 299.989, 779.916 305.250 C 780.954 307.037, 783.310 310.633, 785.151 313.239 L 788.500 317.978 866.618 317.989 L 944.735 318 951.543 313.435 C 955.288 310.924, 960.635 306.803, 963.426 304.277 C 972.793 295.800, 980.373 292.014, 981.497 295.250 C 984.726 304.545, 986.682 308.323, 990.558 312.750 L 995.155 318 1105.527 318 L 1215.900 318 1221.700 314.503 C 1224.890 312.579, 1228.565 311.004, 1229.866 311.003 C 1231.167 311.001, 1234.378 312.575, 1237 314.500 L 1241.768 318 1293.806 318 L 1345.844 318 1349.388 313.859 C 1354.396 308.009, 1356.356 301.446, 1355.779 292.459 C 1355.375 286.168, 1354.815 284.429, 1351.667 279.686 C 1349.663 276.666, 1344.695 271.397, 1340.628 267.976 C 1329.682 258.770, 1328.583 256.094, 1328.155 237.588 C 1327.642 215.423, 1328.899 209, 1333.749 209 C 1336.123 209, 1347.931 221.505, 1361.518 238.407 C 1368.108 246.605, 1374.102 253.925, 1374.837 254.672 C 1376.150 256.007, 1384.839 266.724, 1403.880 290.494 C 1409.165 297.091, 1416.868 305.979, 1420.998 310.244 L 1428.508 318 1452.084 318 L 1475.661 318 1478.786 313.649 C 1480.504 311.256, 1482.916 305.968, 1484.146 301.899 C 1486.367 294.547, 1486.383 293.998, 1486.676 215 C 1486.963 137.317, 1487.187 131.383, 1490.211 121.195 C 1491.429 117.090, 1494.064 117.250, 1495.389 121.510 C 1500.732 138.683, 1505.181 145.891, 1513.566 150.960 C 1525.024 157.886, 1536.255 157.878, 1547.906 150.934 C 1550.042 149.661, 1555.804 143.954, 1563.238 135.750 C 1564.608 134.238, 1566.655 133, 1567.787 133 C 1572.233 133, 1572.500 136.567, 1572.500 196 C 1572.500 257.423, 1572.521 257.195, 1566.196 264.217 L 1562.500 268.321 1569.675 267.725 C 1577.805 267.050, 1582.184 265.174, 1584.741 261.274 C 1586.383 258.767, 1586.518 252.340, 1586.770 164.294 L 1587.040 70 1579.270 70.008 C 1560.414 70.026, 1548.966 74.280, 1541.676 83.977 C 1536.260 91.182, 1531.649 102.043, 1529.884 111.750 L 1528.566 119 1520.783 119 L 1513 119 1513 84.087 L 1513 49.174 1510.020 50.299 C 1506.671 51.563, 1504.949 51.185, 1490.720 46.063 C 1483.273 43.382, 1479.645 42.744, 1466.809 41.857 C 1448.673 40.604, 1423.019 42.008, 1414.201 44.736 L 1408.500 46.500 1445.750 46.762 L 1483 47.024 1483 54.883 L 1483 62.742 1477.750 63.415 C 1474.862 63.785, 1469.884 64.810, 1466.687 65.693 C 1460.140 67.502, 1456.945 70.758, 1455.104 77.500 C 1454.346 80.273, 1454.009 113.494, 1454.006 185.794 L 1454 290.088 1447.066 289.794 L 1440.132 289.500 1368.993 202 C 1329.866 153.875, 1296.972 113.600, 1295.896 112.500 C 1293.952 110.514, 1293.940 110.997, 1294.219 181.028 L 1294.500 251.556 1297.058 256.525 C 1299.156 260.602, 1300.652 262.024, 1305.381 264.443 C 1310.157 266.885, 1312.676 267.464, 1320.073 267.818 L 1329 268.245 1329 276.622 L 1329 285 1283.500 285 L 1238 285 1238 276.641 L 1238 268.282 1246.406 267.758 C 1258.526 267.001, 1265.302 263.760, 1268.290 257.287 L 1270.500 252.500 1270.772 166.685 L 1271.043 80.870 1267.282 76.102 C 1260.219 67.149, 1255.711 64.727, 1243.750 63.464 L 1238 62.856 1238 58.223 L 1238 53.590 1233.190 58.795 C 1230.544 61.658, 1227.614 64, 1226.680 64 C 1225.745 64, 1221.629 60.892, 1217.532 57.094 C 1209.009 49.191, 1202.610 45.723, 1191.976 43.243 C 1185.191 41.661, 1177.019 41.501, 1103.500 41.508 C 1030.502 41.516, 1021.677 41.688, 1014.172 43.252 C 1009.592 44.207, 1005.092 45.427, 1004.172 45.963 C 1003.076 46.603, 1035.159 46.950, 1097.250 46.970 L 1192 47 1192 85.500 L 1192 124 1184.200 124 L 1176.400 124 1175.153 117.750 C 1171.904 101.472, 1165.131 87.370, 1157.930 81.890 C 1146.401 73.117, 1138.194 71.102, 1110.750 70.311 L 1089 69.684 1089 110.842 L 1089 152 1092.250 151.976 C 1111.569 151.830, 1122.724 136.433, 1126.465 104.750 L 1127.144 99 1135.072 99 L 1143 99 1143 163.500 L 1143 228 1135.072 228 L 1127.144 228 1126.480 222.250 C 1124.754 207.315, 1120.790 195.652, 1114.565 187.195 C 1109.512 180.332, 1104.011 177.284, 1094.972 176.339 L 1089 175.715 1089 213.708 C 1089 238.936, 1089.372 252.770, 1090.108 254.881 C 1092.121 260.655, 1095.232 261.464, 1115 261.353 C 1134.574 261.244, 1145.382 259.299, 1156.278 253.924 C 1163.908 250.161, 1165.450 249.038, 1172.321 242.251 C 1178.993 235.659, 1183.763 228.274, 1188.024 217.943 C 1191.923 208.485, 1191.913 207.477, 1187.934 209.534 C 1186.247 210.406, 1183.677 210.981, 1182.223 210.810 C 1180.049 210.555, 1179.412 209.788, 1178.644 206.500 C 1177.499 201.600, 1177.215 174.836, 1178.255 169.962 C 1179.264 165.241, 1182.699 163.354, 1192.562 162.103 C 1202.273 160.871, 1206.357 159.529, 1211.330 155.938 C 1216.072 152.513, 1219.531 148.027, 1222.525 141.416 C 1225.171 135.575, 1225.611 132.977, 1227.406 112.590 C 1228.492 100.253, 1229.035 97.448, 1230.550 96.340 C 1233.581 94.123, 1235.620 94.769, 1241.698 99.869 C 1250.177 106.984, 1251.815 109.042, 1254.044 115.385 C 1255.992 120.927, 1256.046 123.173, 1255.777 187.303 C 1255.502 252.919, 1255.481 253.535, 1253.345 257.500 C 1250.764 262.292, 1245.904 265.444, 1242.438 264.574 C 1239.634 263.870, 1239.469 262.704, 1239.889 246.500 C 1240.212 233.999, 1238.313 224.793, 1233.872 217.341 C 1229.041 209.234, 1220.094 203.268, 1212.478 203.076 L 1209.457 203 1204.603 237.250 C 1201.933 256.087, 1199.301 274.537, 1198.754 278.250 L 1197.758 285 1094.879 285 L 992 285 992 276.500 L 992 268 1000.057 268 C 1010.390 268, 1016.125 266.523, 1019.510 262.989 C 1021.795 260.605, 1022.360 258.836, 1023.157 251.584 C 1023.698 246.659, 1023.972 207.087, 1023.800 158.750 C 1023.521 80.359, 1023.377 74.275, 1021.729 71.260 C 1018.993 66.252, 1013.700 64.121, 1002.106 63.362 L 992.098 62.706 991.799 58.357 L 991.500 54.009 987.694 57.504 C 982.094 62.648, 980.250 62.211, 970.976 53.538 C 962.953 46.035, 959.654 44.339, 949.304 42.397 L 945.765 41.733 946.365 51.617 C 946.695 57.053, 947.252 76.482, 947.603 94.792 L 948.241 128.085 939.951 127.792 L 931.662 127.500 930.283 120.663 C 927.180 105.281, 921.348 93.745, 911.500 83.506 C 903.993 75.701, 894.597 69.577, 886.072 66.931 C 878.660 64.630, 865.864 64.152, 859.265 65.929 C 853.197 67.563, 845.896 73.042, 842.500 78.512 C 840.003 82.534, 839.508 84.362, 839.545 89.422 C 839.600 96.759, 841.952 101.719, 848.167 107.600 C 855.511 114.548, 858.792 116.530, 886.575 130.796 C 901.384 138.400, 916.650 146.661, 920.500 149.153 C 948.780 167.462, 960.388 185.044, 961.665 211.500 C 962.330 225.287, 960.547 234.464, 955.061 245.500 C 938.962 277.883, 902.246 295.068, 863 288.589 C 855.138 287.291, 851.059 286.049, 829.816 278.486 C 824.991 276.768, 821.207 275.982, 819.643 276.375 C 816.027 277.282, 811.209 281.670, 808.936 286.126 L 806.959 290 799.480 290 L 792 290 792 244.892 L 792 199.785 785.943 205.392 C 779.192 211.643, 776.074 212.419, 771.662 208.948 C 768.834 206.724, 756.229 202, 753.122 202 C 751.476 202, 751.031 203.230, 749.956 210.750 C 749.269 215.563, 746.635 234.125, 744.103 252 L 739.500 284.500 636.250 284.755 L 533 285.009 533 276.615 L 533 268.221 543.750 267.815 C 555.551 267.368, 559.678 265.947, 562.741 261.274 C 564.383 258.768, 564.518 252.430, 564.770 166.284 C 565.074 62.456, 565.578 69.470, 557.567 65.926 C 554.810 64.707, 549.649 63.790, 543.138 63.364 L 533 62.699 532.978 58.600 L 532.956 54.500 530.911 57 C 527.142 61.610, 525.044 67.315, 525.028 73 C 524.995 83.811, 527.261 88.226, 539.140 100.500 C 542.866 104.350, 546.946 109.750, 548.207 112.500 L 550.500 117.500 550.825 179.500 C 551.166 244.337, 550.776 252.212, 546.916 258.578 C 543.541 264.144, 536.208 265.644, 530.220 261.993 C 524.843 258.714, 519.096 252.261, 507.939 236.972 C 488.790 210.731, 486.739 206, 490.960 197.797 C 492.176 195.434, 494.650 191.925, 496.457 190 C 504.027 181.939, 512.582 165.355, 515.287 153.500 C 517.686 142.985, 518.146 135.514, 517.042 125 C 514.801 103.662, 508.129 89.194, 493.596 74.158 C 473.080 52.933, 449.515 44.515, 403.500 41.975 C 385.526 40.983, 313.600 41.005, 299.491 42.007 M 568 41.977 C 558.798 42.632, 545.497 45.169, 544.137 46.530 C 543.878 46.788, 586.492 47, 638.833 47 L 734 47 734 85.500 L 734 124 726.158 124 L 718.317 124 715.658 113.297 C 710.856 93.969, 704.056 83.494, 692.237 77.219 C 682.486 72.042, 676.623 71.031, 652.250 70.327 L 630 69.685 630 110.842 L 630 152 633.750 151.994 C 643.101 151.981, 652.722 146.765, 657.853 138.928 C 661.784 132.922, 665.499 121.759, 666.981 111.500 C 668.978 97.670, 667.909 99, 677.019 99 L 685 99 685 163.500 L 685 228 677.019 228 C 667.919 228, 668.994 229.323, 666.979 215.647 C 664.351 197.819, 656.740 183.969, 646.777 178.886 C 644.654 177.803, 640.011 176.646, 636.458 176.314 L 630 175.711 630.051 209.105 C 630.110 247.364, 630.679 255.123, 633.640 258.084 C 636.937 261.381, 647.558 262.440, 664.799 261.191 C 681.739 259.964, 688.537 258.403, 699 253.341 C 712.670 246.728, 725.125 231.575, 731.053 214.347 C 732.124 211.234, 733 208.558, 733 208.400 C 733 208.242, 730.920 209.032, 728.378 210.157 C 723.790 212.186, 723.743 212.187, 721.799 210.244 C 718.378 206.823, 716.859 186.214, 719.086 173.428 C 720.052 167.881, 722.698 163.035, 724.789 162.982 C 729.092 162.874, 744.623 159.798, 747.312 158.522 C 757.128 153.864, 763.292 144.839, 766.927 129.801 C 768.840 121.891, 768.918 119.940, 768.035 102.392 C 766.536 72.622, 763.884 62.978, 754.834 54.384 C 749.204 49.038, 742.200 45.422, 733.500 43.369 C 727.377 41.925, 717.224 41.687, 652.500 41.474 C 611.800 41.339, 573.775 41.566, 568 41.977 M 1271.500 41.908 C 1266 42.318, 1258.800 43.518, 1255.500 44.576 L 1249.500 46.500 1288.098 46.762 L 1326.696 47.023 1333.584 55.762 C 1337.373 60.568, 1354.438 82.050, 1371.507 103.500 C 1388.575 124.950, 1408.831 150.461, 1416.520 160.192 L 1430.500 177.883 1430.767 135.692 C 1431.126 78.892, 1430.396 73.297, 1421.901 67.789 C 1417.799 65.129, 1415.717 64.617, 1404.250 63.443 L 1398 62.804 1398 58.279 C 1398 54.625, 1397.744 53.968, 1396.668 54.860 C 1393.932 57.131, 1390.132 65.765, 1388.355 73.750 C 1387.345 78.287, 1386.003 82, 1385.373 82 C 1382.668 82, 1378.713 78.716, 1365.996 65.913 C 1354.443 54.282, 1351.420 51.807, 1345 48.726 C 1340.739 46.682, 1333.907 44.455, 1329.182 43.572 C 1319.476 41.757, 1286.368 40.802, 1271.500 41.908 M 1542 41.976 C 1533.290 42.860, 1523.158 44.839, 1521 46.078 C 1520.154 46.564, 1564.718 46.952, 1623.250 46.970 L 1727 47 1727 83 L 1727 119 1719.500 119 C 1715.375 119, 1712 118.834, 1712 118.630 C 1712 116.446, 1705.194 96.305, 1702.790 91.375 C 1699.035 83.673, 1692.086 76.845, 1684.443 73.345 C 1679.739 71.192, 1677.008 70.749, 1665.445 70.264 L 1651.941 69.698 1652.221 164.099 C 1652.484 253.257, 1652.600 258.648, 1654.309 261.164 C 1657.411 265.733, 1662.380 267.436, 1673.750 267.829 L 1684 268.182 1684 276.591 L 1684 285 1619.500 285 L 1555 285 1554.996 280.250 L 1554.991 275.500 1552.052 279.931 C 1548.420 285.406, 1546.562 292.789, 1547.357 298.590 C 1548.152 304.386, 1552.134 312.094, 1556.028 315.370 L 1559.153 318 1629.500 318 L 1699.846 318 1702.962 314.884 C 1710.277 307.569, 1712.884 295.770, 1709.380 285.833 C 1707.939 281.746, 1705.476 278.396, 1698.840 271.495 C 1685.534 257.659, 1686.500 263.572, 1686.500 195.956 C 1686.500 142.551, 1686.628 138.217, 1688.273 135.706 C 1689.248 134.218, 1690.696 133, 1691.490 133 C 1692.284 133, 1696.430 136.637, 1700.702 141.083 C 1710.808 151.599, 1718.226 155.442, 1728.239 155.350 C 1733.726 155.300, 1736.173 154.717, 1740.778 152.362 L 1746.500 149.436 1746.760 101.480 L 1747.020 53.523 1744.760 51.726 C 1740.563 48.389, 1733.047 44.980, 1726.255 43.335 C 1720.317 41.897, 1709.225 41.670, 1634.500 41.457 C 1587.750 41.324, 1546.125 41.557, 1542 41.976 M 36.875 56.053 C 32.379 62.957, 30.728 68.863, 31.208 76.334 C 31.811 85.731, 34.537 90.790, 45.041 102 C 49.421 106.675, 53.566 112.075, 54.252 114 C 55.202 116.665, 55.500 133.605, 55.500 185 C 55.500 258.738, 55.616 257.174, 49.661 264 C 46.732 267.358, 46.694 267.513, 48.744 267.812 C 52.067 268.297, 62.079 266.179, 64.756 264.424 C 70.131 260.902, 70.005 263.316, 69.944 165.782 C 69.902 98.584, 69.582 74.605, 68.694 72 C 66.914 66.781, 61.022 64.229, 48.799 63.383 L 39.098 62.712 38.799 58.135 L 38.500 53.558 36.875 56.053 M 361 113.876 L 361 159.036 372.250 158.414 C 393.232 157.256, 403.124 154.075, 409.987 146.277 C 417.443 137.807, 420.722 123.154, 418.964 106.160 C 417.832 95.217, 415.155 87.709, 410.408 82.164 C 403.160 73.696, 394.150 70.605, 373.250 69.414 L 361 68.717 361 113.876 M 133 113.920 L 133 158 138.818 158 C 146.373 158, 153.632 155.792, 159.600 151.680 C 169.370 144.946, 174.795 128.719, 173.685 109.541 C 172.200 83.885, 162.708 72.979, 139.750 70.554 L 133 69.841 133 113.920 M 983.171 98.250 C 982.540 101.138, 981.526 110.898, 980.916 119.941 C 979.969 134.003, 979.380 137.544, 976.846 144.417 C 975.217 148.836, 973.030 153.834, 971.986 155.522 C 970.943 157.211, 969.792 160.451, 969.428 162.724 C 968.807 166.608, 969.170 167.460, 975.500 177 C 991.219 200.688, 995.967 216.831, 994.470 241.500 C 994.036 248.650, 993.640 257.200, 993.590 260.500 C 993.507 266.052, 993.674 266.525, 995.829 266.830 C 998.884 267.263, 1005.491 260.420, 1007 255.260 C 1007.722 252.793, 1008.307 228.790, 1008.701 185.461 C 1009.381 110.563, 1009.587 112.923, 1001.680 104.731 C 996.669 99.539, 987.803 93, 985.775 93 C 984.830 93, 983.915 94.844, 983.171 98.250 M 856.485 236.024 C 855.117 238.238, 857.451 243.568, 861.846 248.267 C 869.144 256.069, 879.804 260.413, 885.396 257.865 C 892.250 254.743, 884.614 246.023, 868.073 238.085 C 861.467 234.914, 857.596 234.226, 856.485 236.024" stroke="none" fill="#000000" fill-rule="evenodd"/>
</svg>