<svg xmlns="http://www.w3.org/2000/svg" width="1567" height="292" viewBox="0 0 1567 292" version="1.1">
	<path d="M 62.500 29.119 C 57.550 29.552, 51.700 30.549, 49.500 31.334 C 45.937 32.604, 52.546 32.816, 110 33.275 C 175.782 33.801, 185.259 34.299, 200.500 38.031 C 225.478 44.148, 244.459 61.801, 250.498 84.535 C 252.586 92.395, 252.605 109.580, 250.533 117.500 C 247.813 127.903, 243.147 135.862, 234.906 144.161 C 228.667 150.444, 225.608 152.630, 217.899 156.310 C 212.730 158.778, 207.792 160.955, 206.926 161.149 C 205.763 161.408, 207.983 165.186, 215.426 175.613 C 220.967 183.376, 233.600 201.125, 243.500 215.057 C 268.851 250.731, 270.671 252.518, 283.750 254.584 L 288 255.256 288 263.128 L 288 271 248.082 271 L 208.163 271 188.903 243.750 C 178.310 228.762, 161.783 205.363, 152.176 191.750 C 135.153 167.628, 134.622 167, 131.282 167 L 127.855 167 128.177 205.928 C 128.488 243.417, 128.576 244.961, 130.565 247.678 C 133.886 252.218, 138.515 253.893, 149.788 254.631 L 160 255.301 160 263.150 L 160 271 96.500 271 L 33 271 32.973 266.250 L 32.946 261.500 30.037 265 C 25.300 270.699, 22.656 283.956, 25.161 289.453 L 26.321 292 281.545 292 L 536.768 292 539.434 284.809 C 544.521 271.083, 549.900 231.436, 548.215 220.082 C 545.682 203.014, 535.962 191.580, 522.461 189.784 L 518.422 189.247 513.585 223.373 C 510.925 242.143, 508.301 260.538, 507.754 264.250 L 506.758 271 403.379 271 L 300 271 300 263 L 300 255 308.750 254.956 C 320.053 254.900, 326.613 252.756, 329.727 248.102 L 332 244.704 332 151.752 L 332 58.800 328.703 55.503 C 324.529 51.329, 319.751 50.013, 308.750 50.006 L 300 50 299.967 45.750 L 299.933 41.500 298.043 43.767 C 297.003 45.014, 295.164 49.004, 293.956 52.633 C 289.914 64.778, 293.029 73.411, 306.440 87.229 C 312.569 93.544, 315.270 97.139, 316.206 100.229 C 317.210 103.542, 317.500 119.637, 317.500 172 C 317.500 235.156, 317.384 239.713, 315.697 242.803 C 312.547 248.573, 310.465 250, 305.196 250 C 296.257 250, 290.087 244.457, 274.029 222 C 269.506 215.675, 264.967 209.375, 263.941 208 C 259.402 201.915, 256.864 196.636, 256.364 192.239 C 255.872 187.914, 256.160 187.044, 259.662 182.281 C 279.106 155.841, 281.964 149.498, 283.966 128.334 C 285.643 110.608, 281.954 91.354, 274.311 77.941 C 265.839 63.073, 247.863 47.283, 231.500 40.336 C 206.985 29.927, 203.103 29.560, 108 28.671 C 87.925 28.483, 67.450 28.685, 62.500 29.119 M 1068.500 29.013 C 1064.100 29.412, 1058.475 30.360, 1056 31.119 C 1052.024 32.339, 1058.890 32.571, 1115 33.107 C 1175.528 33.686, 1187.727 34.248, 1201.875 37.107 C 1228.912 42.572, 1248.300 59.324, 1255.628 83.552 C 1258.116 91.779, 1258.114 110.213, 1255.624 118.500 C 1250.506 135.529, 1238.942 148.838, 1222.495 156.629 C 1217.421 159.033, 1212.706 161, 1212.019 161 C 1211.150 161, 1211.312 161.836, 1212.553 163.750 C 1218.099 172.304, 1266.971 240.365, 1270.819 244.895 C 1275.763 250.714, 1280.653 253.417, 1288.250 254.531 L 1293 255.227 1293 263.114 L 1293 271 1253.250 270.990 L 1213.500 270.981 1194 243.359 C 1134.971 159.745, 1140.846 167.536, 1136.565 167.181 L 1132.723 166.863 1133.219 204.681 C 1133.756 245.666, 1134.039 247.830, 1139.327 251.294 C 1142.112 253.119, 1152.492 254.948, 1160.250 254.980 L 1165 255 1165 263 L 1165 271 1101.500 271 L 1038 271 1038 263.151 L 1038 255.302 1047.250 254.628 C 1059.444 253.740, 1061.229 253.289, 1064.995 250.145 C 1067.936 247.690, 1068.252 246.819, 1069.142 238.726 C 1069.707 233.578, 1069.980 195.236, 1069.802 145.733 C 1069.518 66.510, 1069.391 61.282, 1067.673 57.827 C 1064.982 52.419, 1060.552 50.676, 1048.250 50.183 L 1038 49.773 1038 45.764 C 1038 42.423, 1037.765 41.950, 1036.586 42.928 C 1031.961 46.767, 1029.128 59.140, 1031.026 67.215 C 1032.847 74.961, 1034.509 77.685, 1042.490 86 C 1046.449 90.125, 1050.771 95.750, 1052.094 98.500 L 1054.500 103.500 1054.825 167.500 C 1055.192 239.736, 1054.998 242.636, 1049.417 248.382 C 1042.714 255.284, 1033.818 254.185, 1026.591 245.563 C 1020.789 238.639, 1017.303 232.578, 1011.027 218.500 C 1008.084 211.900, 1003.464 201.550, 1000.760 195.500 C 998.055 189.450, 995.245 182.925, 994.515 181 C 993.785 179.075, 991.410 173.675, 989.237 169 C 987.065 164.325, 983.146 155.550, 980.530 149.500 C 977.913 143.450, 974.924 136.670, 973.886 134.434 C 972.849 132.198, 972 130.102, 972 129.777 C 972 129.451, 970.002 124.909, 967.561 119.684 C 965.119 114.459, 961.252 105.754, 958.968 100.342 C 956.684 94.929, 953.975 88.700, 952.949 86.500 C 951.923 84.300, 948.910 77.539, 946.254 71.475 C 933.598 42.585, 923.420 31.804, 907.386 30.307 C 901.833 29.789, 900.760 29.925, 901.218 31.090 C 905.559 42.121, 987.454 227.015, 990.936 233.645 C 999.287 249.549, 1003.099 253.029, 1013.750 254.475 L 1019 255.188 1019 263.094 L 1019 271 959 271 L 899 271 899 263 L 899 255 905.364 255 C 919.756 255, 926.711 251.923, 925.373 246.147 C 925.036 244.691, 921.290 235.175, 917.049 225 L 909.338 206.500 872.590 206.500 L 835.842 206.500 830.426 219.089 C 824.202 233.553, 822.632 240.082, 824.098 245.392 C 825.701 251.200, 829.714 252.789, 847.250 254.562 L 853 255.144 853 263.072 L 853 271 810 271 L 767 271 767 265.297 L 767 259.594 763.250 263.179 C 756.157 269.959, 756.308 269.979, 745.827 260.978 C 733.838 250.682, 730.412 246.300, 728.989 239.447 C 727.719 233.328, 728.170 128.562, 729.488 123.720 C 729.904 122.191, 731.170 120.444, 732.301 119.839 C 734.128 118.861, 735.202 119.627, 741.929 126.707 C 754 139.412, 761.068 142.816, 773.112 141.724 C 780.079 141.092, 788.603 136.512, 792.630 131.237 C 799.936 121.668, 802.457 110.348, 802.371 87.500 C 802.299 68.150, 801.211 61.496, 796.473 51.432 C 791.047 39.905, 781.722 33.190, 767.313 30.433 C 756.411 28.347, 586.104 28.315, 575.188 30.397 C 571.166 31.164, 567.603 32.063, 567.271 32.396 C 566.939 32.728, 612.192 33, 667.833 33 L 769 33 769 69 L 769 105 761.209 105 L 753.418 105 751.659 98.250 C 746.008 76.569, 739.718 66.841, 727.238 60.482 C 721.885 57.754, 720.577 57.531, 707.730 57.165 L 693.960 56.772 694.230 151.136 C 694.464 233.025, 694.698 245.801, 696 247.778 C 698.658 251.813, 704.693 253.904, 715.775 254.631 L 726 255.301 726 263.150 L 726 271 661.555 271 L 597.110 271 596.805 266.257 L 596.500 261.515 593.184 266.698 C 589.520 272.424, 588.243 279.469, 589.432 287.396 L 590.123 292 735.667 292 L 881.211 292 884.283 289.415 L 887.355 286.830 888.710 289.415 L 890.064 292 1201.052 292 L 1512.040 292 1516.270 289.343 C 1523.577 284.755, 1534.589 275.282, 1541.961 267.243 C 1549.878 258.610, 1555.866 249.677, 1562.232 237 L 1566.500 228.500 1566.774 172.703 L 1567.049 116.906 1561.169 105.096 C 1544.415 71.442, 1516.781 48.024, 1480.500 36.738 C 1457.800 29.676, 1444.339 28.529, 1384 28.513 C 1340.322 28.502, 1333.567 28.708, 1326.568 30.266 C 1322.205 31.237, 1318.418 32.249, 1318.151 32.516 C 1317.885 32.782, 1338.554 33.002, 1364.083 33.004 C 1429.568 33.009, 1449.090 34.606, 1470 41.668 C 1499.239 51.544, 1524.025 75.853, 1534.580 105.005 C 1546.193 137.078, 1545.824 171.198, 1533.532 201.919 C 1528.138 215.403, 1522.512 224.233, 1512.734 234.565 C 1496.281 251.949, 1478.348 261.404, 1449 268.167 C 1439.826 270.281, 1437.172 270.369, 1371.750 270.735 L 1304 271.115 1304 263.205 L 1304 255.295 1314.704 254.603 C 1326.704 253.827, 1330.778 252.129, 1333.774 246.653 C 1335.373 243.732, 1335.500 236.795, 1335.500 152.500 C 1335.500 76.960, 1335.263 60.939, 1334.107 58.197 C 1331.861 52.872, 1326.442 50.687, 1314.250 50.191 L 1304 49.773 1304 45.810 L 1304 41.847 1301.353 44.993 C 1298.516 48.364, 1296.035 56.984, 1296.025 63.500 C 1296.016 70.178, 1300.291 77.672, 1309.431 87 C 1322.462 100.299, 1321.500 93.487, 1321.500 172.500 L 1321.500 239.500 1319.231 243.149 C 1316.267 247.915, 1310.658 250.297, 1305.654 248.915 C 1299.432 247.197, 1292.592 240.671, 1282.993 227.297 C 1277.942 220.259, 1272.975 213.375, 1271.954 212 C 1267.986 206.655, 1262.855 197.526, 1262.323 194.864 C 1261.210 189.301, 1262.989 185.174, 1271.198 174.276 C 1280.313 162.175, 1284.826 153.310, 1288.170 140.933 C 1292.910 123.395, 1290.139 97.174, 1281.975 82.298 C 1274.476 68.633, 1263.007 55.907, 1251.821 48.839 C 1248.894 46.989, 1245.600 44.906, 1244.500 44.209 C 1230.419 35.286, 1209.831 30.531, 1178.500 28.967 C 1157.528 27.920, 1080.195 27.952, 1068.500 29.013 M 324.500 30.052 C 305.965 32.518, 316.213 32.875, 407.250 32.937 L 501 33 501 72 L 501 111 493.250 110.996 L 485.500 110.993 482.790 99.973 C 477.794 79.660, 471.080 69.759, 457.900 63.272 C 448.347 58.570, 444.542 57.967, 420.250 57.312 L 398 56.711 398 97.949 L 398 139.188 403.250 138.495 C 413.166 137.187, 421.221 132.194, 426.099 124.329 C 429.365 119.062, 432.819 107.528, 434.597 95.949 L 436.277 85 444.139 85 L 452 85 452 150 L 452 215 444.164 215 L 436.327 215 434.577 204.250 C 432.543 191.753, 428.441 180.494, 423.450 173.713 C 418.291 166.704, 413.753 164.302, 402.250 162.493 L 398 161.824 398 200.263 C 398 224.978, 398.382 239.797, 399.070 241.770 C 400.879 246.961, 404.666 248, 421.770 248 C 452.152 248, 469.715 241.938, 483.585 226.664 C 489 220.701, 497.953 204.458, 499.590 197.626 L 500.279 194.752 495.693 197.440 C 492.006 199.601, 490.713 199.917, 489.096 199.052 C 486.253 197.530, 485.605 192.928, 485.569 174 C 485.544 160.644, 485.859 156.784, 487.221 153.744 C 489.211 149.300, 491.040 148.477, 501 147.544 C 505.125 147.158, 510.099 146.434, 512.053 145.935 C 518.577 144.271, 527.739 134.581, 532.304 124.518 C 534.649 119.347, 536.831 116.998, 538.642 117.693 C 539.441 118, 541.829 120.782, 543.947 123.875 C 549.893 132.560, 552.989 135.525, 559.624 138.892 C 564.753 141.495, 566.891 142, 572.791 142 C 583.258 142, 587.621 139.720, 598.733 128.444 C 603.852 123.250, 608.395 119, 608.829 119 C 609.263 119, 610.438 119.600, 611.440 120.332 C 614.194 122.346, 615.150 143.610, 614.798 195 C 614.504 237.973, 614.472 238.561, 612.199 243.500 C 610.933 246.250, 608.458 250.003, 606.699 251.840 L 603.500 255.179 610.500 254.494 C 618.686 253.693, 623.561 251.608, 626.435 247.677 C 628.482 244.879, 628.502 244.034, 628.779 150.927 L 629.059 57 619.713 57 C 603.678 57, 592.724 60.208, 586.445 66.743 C 579.281 74.199, 572.976 88.063, 571.435 99.750 L 570.742 105 562.371 105 L 554 105 553.959 72.250 L 553.919 39.500 550.883 43 C 549.213 44.925, 546.791 48.525, 545.500 51 C 544.209 53.475, 541.881 56.954, 540.327 58.731 C 537.596 61.851, 537.432 61.901, 535.500 60.203 C 534.400 59.236, 532.375 56.269, 531 53.611 C 527.755 47.338, 518.794 38.104, 512.664 34.717 C 502.626 29.170, 499.316 28.988, 411.140 29.127 C 366.788 29.197, 327.800 29.613, 324.500 30.052 M 879.871 41.759 C 876.238 45.613, 872.136 51.307, 870.327 55.009 C 864.944 66.022, 857 83.074, 857 83.615 C 857 84.158, 853.700 91.548, 849.012 101.500 C 845.292 109.398, 832.906 137.083, 832.234 139 C 831.945 139.825, 830.599 142.975, 829.241 146 C 827.884 149.025, 822.978 160.050, 818.340 170.500 C 813.701 180.950, 809.034 191.300, 807.970 193.500 C 806.905 195.700, 803.317 203.575, 799.996 211 C 792.066 228.732, 786.002 239.048, 778.837 246.997 C 775.616 250.570, 773.454 253.651, 774.032 253.844 C 776.056 254.519, 785.854 248.904, 789.291 245.100 C 796.604 237.005, 797.923 234.257, 845.012 129 C 857.187 101.787, 863.980 86.636, 875.053 62 C 886.128 37.359, 887.140 35, 886.635 35 C 886.419 35, 883.375 38.041, 879.871 41.759 M 29.821 44.500 C 28.348 46.700, 26.387 51.146, 25.462 54.381 C 24.009 59.469, 23.952 61.086, 25.042 66.381 C 26.821 75.021, 28.255 77.440, 37.052 86.641 C 49.714 99.885, 48.500 91.042, 48.500 170 C 48.500 207.675, 48.144 240.177, 47.709 242.227 C 47.274 244.277, 45.346 248.014, 43.425 250.531 L 39.931 255.107 46.216 254.453 C 53.948 253.648, 60.213 250.839, 62.086 247.338 C 63.275 245.117, 63.500 229.975, 63.500 152.054 C 63.500 65.319, 63.388 59.241, 61.741 56.727 C 58.792 52.227, 54.513 50.713, 43.300 50.205 L 33.099 49.742 32.800 45.121 L 32.500 40.500 29.821 44.500 M 128 100.353 L 128 145 137.250 144.980 C 160.049 144.930, 172.524 140.449, 179.683 129.738 C 184.806 122.072, 186.399 115.281, 186.422 101 C 186.446 86.476, 184.792 79.440, 179.431 71.263 C 172.653 60.927, 163.206 57.119, 142.250 56.278 L 128 55.706 128 100.353 M 1133 100.500 L 1133 145 1143.250 144.965 C 1179.747 144.841, 1193.397 131.257, 1191.737 96.711 C 1190.318 67.189, 1177.029 56.032, 1143.250 56.008 L 1133 56 1133 100.500 M 1401.014 149.099 C 1401.021 199.920, 1401.284 242.458, 1401.598 243.628 C 1402.434 246.741, 1406.148 248, 1414.498 248 C 1432.675 248, 1446.917 240.850, 1455.516 227.408 C 1465.979 211.052, 1470.758 191.573, 1471.688 161.500 C 1473.223 111.861, 1461.183 77.766, 1437 63.266 C 1431.889 60.201, 1422.224 57.991, 1410.927 57.303 L 1401 56.698 1401.014 149.099 M 1436.785 118.250 C 1435.796 119.982, 1435.431 132.271, 1435.200 171.662 C 1434.944 215.341, 1435.119 223.349, 1436.399 226.412 C 1438.146 230.594, 1440.433 231.021, 1444.393 227.905 C 1454.924 219.622, 1460.553 179.292, 1455.477 148.500 C 1451.868 126.610, 1441.549 109.910, 1436.785 118.250 M 859.381 154.250 L 846.384 183.500 872.342 183.767 C 886.618 183.914, 898.439 183.894, 898.610 183.724 C 899.093 183.241, 873.689 125, 872.995 125 C 872.656 125, 866.530 138.162, 859.381 154.250 M 874.560 252.132 C 870.983 254.945, 871.569 257.164, 878.695 267.803 C 885.753 278.340, 886.720 278.319, 892.616 267.500 C 895.013 263.100, 896.980 258.678, 896.987 257.673 C 896.994 256.668, 895.685 254.531, 894.077 252.923 C 891.408 250.254, 890.551 250, 884.212 250 C 878.641 250, 876.734 250.421, 874.560 252.132" stroke="none" fill="#000000" fill-rule="evenodd"/>
</svg>